<?xml version="1.0" encoding="UTF-8"?>
<svg width="800px" height="800px" viewBox="0 0 800 800" version="1.1" xmlns="http://www.w3.org/2000/svg" xmlns:xlink="http://www.w3.org/1999/xlink">
    <!-- Generator: Sketch 51.3 (57544) - http://www.bohemiancoding.com/sketch -->
    <title>Group 4</title>
    <desc>Created with Sketch.</desc>
    <defs>
        <polygon id="path-1" points="0 0.158047993 499.846098 0.158047993 499.846098 500.922678 0 500.922678"></polygon>
    </defs>
    <g id="Page-1" stroke="none" stroke-width="1" fill="none" fill-rule="evenodd">
        <g id="Artboard">
            <g id="Group-4">
                <circle id="Oval" stroke="#979797" fill="#000000" cx="400" cy="400" r="400"></circle>
                <g id="Group-2" transform="translate(150.000000, 150.000000)">
                    <g id="Group-3">
                        <mask id="mask-2" fill="white">
                            <use xlink:href="#path-1"></use>
                        </mask>
                        <g id="Clip-2"></g>
                        <path d="M249.923545,0.158047993 C182.048024,0.158047993 173.537046,0.446311629 146.880095,1.664971 C120.278701,2.88064833 102.110903,7.11414772 86.2139553,13.3048578 C69.7793053,19.7033165 55.8416984,28.2657405 41.9467505,42.1868861 C28.0527947,56.1090256 19.5070941,70.0739078 13.1211324,86.5407194 C6.9425136,102.468776 2.71728276,120.672128 1.5039798,147.32558 C0.287700621,174.034697 0,182.56233 0,250.57068 C0,318.578036 0.287700621,327.105669 1.5039798,353.814786 C2.71728276,380.468238 6.9425136,398.67159 13.1211324,414.599647 C19.5070941,431.066459 28.0527947,445.031341 41.9467505,458.95348 C55.8416984,472.874626 69.7793053,481.43705 86.2139553,487.836502 C102.110903,494.026219 120.278701,498.259718 146.880095,499.475395 C173.537046,500.694055 182.048024,500.982318 249.923545,500.982318 C317.798074,500.982318 326.309052,500.694055 352.966002,499.475395 C379.567397,498.259718 397.735195,494.026219 413.632143,487.836502 C430.066793,481.43705 444.004399,472.874626 457.899347,458.95348 C471.793303,445.031341 480.339004,431.066459 486.725958,414.599647 C492.903584,398.67159 497.128815,380.468238 498.342118,353.814786 C499.558397,327.105669 499.846098,318.578036 499.846098,250.57068 C499.846098,182.56233 499.558397,174.034697 498.342118,147.32558 C497.128815,120.672128 492.903584,102.468776 486.725958,86.5407194 C480.339004,70.0739078 471.793303,56.1090256 457.899347,42.1868861 C444.004399,28.2657405 430.066793,19.7033165 413.632143,13.3048578 C397.735195,7.11414772 379.567397,2.88064833 352.966002,1.664971 C326.309052,0.446311629 317.798074,0.158047993 249.923545,0.158047993 Z M350.913407,46.7374754 C375.280658,47.8507695 388.513894,51.9301969 397.320509,55.3595402 C408.986274,59.9021775 417.311734,65.3284919 426.056841,74.0917064 C434.80294,82.8539269 440.218656,91.1956801 444.752421,102.884274 C448.175066,111.708123 452.246526,124.967256 453.357646,149.382192 C454.560036,175.787141 454.814998,183.707433 454.814998,250.57068 C454.814998,317.432933 454.560036,325.353225 453.357646,351.758174 C452.246526,376.17311 448.175066,389.432243 444.752421,398.256093 C440.218656,409.944686 434.80294,418.286439 426.056841,427.04866 C417.311734,435.811874 408.986274,441.238189 397.320509,445.780826 C388.513894,449.210169 375.280658,453.289597 350.913407,454.402891 C324.563999,455.607634 316.660168,455.863095 249.923545,455.863095 C183.18593,455.863095 175.283091,455.607634 148.932691,454.402891 C124.56544,453.289597 111.332204,449.210169 102.525588,445.780826 C90.8598243,441.238189 82.5343636,435.811874 73.7892568,427.04866 C65.04415,418.286439 59.6274417,409.944686 55.0936768,398.256093 C51.6710315,389.432243 47.5995716,376.17311 46.488452,351.758174 C45.2860618,325.353225 45.0310996,317.432933 45.0310996,250.57068 C45.0310996,183.707433 45.2860618,175.787141 46.488452,149.382192 C47.5995716,124.967256 51.6710315,111.708123 55.0936768,102.884274 C59.6274417,91.1956801 65.0431579,82.8539269 73.7892568,74.0917064 C82.5343636,65.3284919 90.8598243,59.9021775 102.525588,55.3595402 C111.332204,51.9301969 124.56544,47.8507695 148.932691,46.7374754 C175.286067,45.5327322 183.19089,45.277271 249.923545,45.277271 C316.655208,45.277271 324.56003,45.5327322 350.913407,46.7374754 Z" id="Fill-1" fill="#FFFFFF" mask="url(#mask-2)"></path>
                    </g>
                    <g id="Group" transform="translate(122.024746, 86.479091)">
                        <path d="M129.030709,248.625311 C82.972243,248.625311 45.6352709,211.215272 45.6352709,165.067667 C45.6352709,118.919067 82.972243,81.509028 129.030709,81.509028 C175.088182,81.509028 212.425154,118.919067 212.425154,165.067667 C212.425154,211.215272 175.088182,248.625311 129.030709,248.625311 Z M128.473705,35.7844513 C57.5189582,35.7844513 0,93.4159711 0,164.509572 C0,235.602178 57.5189582,293.233698 128.473705,293.233698 C199.427458,293.233698 256.946416,235.602178 256.946416,164.509572 C256.946416,93.4159711 199.427458,35.7844513 128.473705,35.7844513 Z" id="Fill-4" fill="#FFFFFF"></path>
                        <path d="M128.038638,248.625311 C81.9801719,248.625311 44.6431997,211.215272 44.6431997,165.067667 C44.6431997,118.919067 81.9801719,81.509028 128.038638,81.509028 C174.096111,81.509028 211.433083,118.919067 211.433083,165.067667 C211.433083,211.215272 174.096111,248.625311 128.038638,248.625311 Z" id="Path" fill="#000000"></path>
                        <path d="M290.676834,29.8208693 C290.676834,46.290362 277.351534,59.6407522 260.914208,59.6407522 C244.477867,59.6407522 231.152568,46.290362 231.152568,29.8208693 C231.152568,13.3513766 244.477867,0 260.914208,0 C277.351534,0 290.676834,13.3513766 290.676834,29.8208693" id="Fill-5" fill="#FFFFFF"></path>
                    </g>
                </g>
            </g>
        </g>
    </g>
</svg>